<?xml version="1.0" encoding="utf-8"?>
<!-- Generator: Adobe Illustrator 22.1.0, SVG Export Plug-In . SVG Version: 6.00 Build 0)  -->
<svg version="1.1" id="tessin-inline" xmlns="http://www.w3.org/2000/svg" xmlns:xlink="http://www.w3.org/1999/xlink" x="0px"
	 y="0px" viewBox="0 0 280.3 201.7" style="enable-background:new 0 0 280.3 201.7;" xml:space="preserve">
<style type="text/css">
	.st0{fill:#00B798;}
	.st1{fill:none;stroke:#FBFFFF;stroke-width:3;stroke-miterlimit:10;}
	.st2{fill:#FFFFFF;}
</style>
<g>
	<path id="tessin-inline__Stroke-2___304kt" class="st0" d="M83.4,68.1C83.4,30.5,108.1,0,138.6,0s55.2,30.5,55.2,68.1
		s-24.7,68.1-55.2,68.1S83.4,105.7,83.4,68.1z"/>
	<path id="tessin-inline__Fill-1___1fs61" class="st1" d="M87.5,67.6c0-35.6,22.9-64.5,51.1-64.5s51.1,28.9,51.1,64.5
		s-22.9,64.5-51.1,64.5S87.5,103.2,87.5,67.6"/>
	<path id="tessin-inline__Fill-4___WmgTR" class="st2" d="M160.2,31.2c0,0,4.7,4.9,6.9,8.6c1.7,2.9,3.5,4.6,3.5,8
		c0,1.5-1,2.3-0.6,3.7c0.4,1.5,1.8,1.8,2.7,3c1,1.3,1.6,2,2.3,3.6c1.4,3.3,5.2,8.5,0.3,9.1c-0.7,0.1-2.8-0.1-3.3,1.2
		c-0.3,0.7-0.1,1.3,0.1,2.1c0.1,0.8,0.8,1.2,0.5,2s-1.8,1.2-1.8,1.2s1.2,0.9,1.2,1.7c-0.1,1-1.9,0.6-2,1.6c-0.1,0.5,0.1,0.7,0.2,1.2
		c0.2,0.8,0.7,1.2,0.9,2c0.3,1.5,0.2,2.6-0.5,4c-1.4,2.6-4.7,0.7-7.3,2.3c-1,0.6-1.5,1-2.3,1.8c-1.6,1.6-2.9,5.2-2.9,5.2
		s4.7,17,2.5,15.7c0,0-7.4-4.4-14.8-8.6c-4-2.3-6.3-3.2-9.9-1.7c-3.2,1.3-2.9,4.7-5.6,6.8c-2.3,1.8-3.6,3.1-6.5,3.5
		c-3.6,0.5-5.4-1.8-8.9-2.8c-4-1.1-7.8,0.6-10.4-2.6c-2.9-3.7,1-7.3,1.1-12c0-3.4-0.5-5.4-0.4-8.8c0.2-4.2,0.6-6.6,1.8-10.6
		c0.8-2.8-0.9-4.7-1-7.8c-0.1-4.5,1.3-7.8,1.4-11.3c0.3-5.6-0.7-7.9,1.3-12.3c2.1-4.6,5.6-5.7,9-9.5c3.2-3.6,3.8-6.8,7.8-9.4
		c3.2-2,5.6-1.9,9.1-3.1c3.4-1.2,5.1-3,8.7-3.2c3-0.2,4.6,0.6,7.5,1.3c2.3,0.6,4,0.4,5.9,1.8c3.3,2.3,4.3,5.4,4.2,9.4
		C160.8,29.4,160.2,31.2,160.2,31.2"/>
	<g>
		<path id="tessin-inline__Fill-5___3BLDP" d="M25.1,158.6v37.3c0,1.1,0.5,2,1.2,2.8c0.8,0.7,1.7,1.2,2.8,1.2h0.7l0.1,0.6H10.6v-0.6
			h0.8c1.1,0,2-0.4,2.7-1.2c0.8-0.7,1.3-1.6,1.4-2.7v-37.4H7c-1.9,0-3.5,0.6-4.6,1.8c-1.2,1.2-1.7,2.7-1.7,4.6v0.7H0v-10.9
			c0.6,0.3,1.6,0.5,3.2,0.7c1.5,0.3,3,0.4,4.4,0.4h25.6c2.1,0,3.7-0.2,5.1-0.5c1.3-0.3,2.1-0.5,2.5-0.6v11.1h-0.6v-0.7
			c0-1.9-0.5-3.5-1.7-4.6c-1.2-1.2-2.7-1.8-4.6-1.8L25.1,158.6"/>
		<path id="tessin-inline__Fill-6___xu7y4" d="M54.5,199.9c1.1,0,2-0.4,2.8-1.2c0.8-0.8,1.3-1.7,1.3-2.8v-35.4
			c-0.1-1.5-0.8-2.5-2.1-3.3c-0.6-0.4-1.3-0.5-2-0.5h-0.8v-0.6H78c1.3,0,2.7-0.1,4.4-0.4c1.5-0.3,2.6-0.5,3.3-0.7v11.1H85v-0.7
			c0-1.9-0.5-3.5-1.7-4.5c-1.1-1.2-2.6-1.8-4.5-1.9H68.1v18.5h8.4c1.5,0,2.8-0.5,3.9-1.5c1-1.1,1.5-2.4,1.5-3.9v-0.5h0.6V186h-0.6
			v-0.5c0-2.1-0.8-3.7-2.5-4.7c-0.8-0.5-1.8-0.7-2.8-0.7h-8.5v17.8h8.4c3.1,0,5.6-0.9,7.7-2.6c2.1-1.8,3.7-4.3,4.7-7.5h0.6l-2.9,13
			H53.7V200L54.5,199.9"/>
		<path id="tessin-inline__Fill-7___3l65v_1_" d="M103.8,194.7c0-3.1,0.6-5.6,2-7.8h0.5c0,0.4-0.1,0.6-0.1,1c0,2.9,1,5.5,3.1,7.7
			c2.1,2.2,5,3.3,8.6,3.3c2.8,0,5-0.6,6.6-2c1.6-1.4,2.5-3.1,2.5-5.2c0-2.5-1.7-4.6-5.1-6.5l-11.1-7.3c-2.2-1.3-3.8-2.8-4.7-4.5
			c-0.9-1.8-1.4-3.6-1.4-5.5c0-4,1.3-7.1,3.7-9.2c2.5-2.2,5.8-3.3,9.7-3.3c2.4,0,5.2,0.2,8.6,0.6h4l-0.8,9.4h-0.6
			c0-2.2-0.8-4-2.5-5.3c-1.6-1.4-3.7-2-6.5-2c-3.3,0-5.7,1-7.2,3.1c-0.7,1-1.2,2.1-1.2,3.3c0,2,1.5,3.9,4.5,5.6l12.1,7.9
			c3.8,2.2,5.7,5.5,5.7,9.7c0,4.5-1.5,8-4.6,10.5c-3.1,2.4-7.1,3.5-12.2,3.5c-2.9,0-5.5-0.4-8-1c-2.5-0.7-4.2-1.6-5.4-2.8
			C104,196.7,103.8,195.7,103.8,194.7"/>
		<path id="tessin-inline__Fill-8___1vM5Q" d="M150.1,194.7c0-3.1,0.6-5.6,2-7.8h0.5c0,0.4-0.1,0.6-0.1,1c0,2.9,1,5.5,3.1,7.7
			c2.1,2.2,5,3.3,8.6,3.3c2.8,0,5-0.6,6.6-2c1.6-1.4,2.5-3.1,2.5-5.2c0-2.5-1.7-4.6-5.1-6.5l-11.1-7.3c-2.2-1.3-3.8-2.8-4.7-4.5
			c-0.9-1.8-1.4-3.6-1.4-5.5c0-4,1.3-7.1,3.7-9.2c2.5-2.2,5.8-3.3,9.7-3.3c2.4,0,5.2,0.2,8.6,0.6h4l-0.8,9.4h-0.6
			c0-2.2-0.8-4-2.5-5.3c-1.6-1.4-3.7-2-6.5-2c-3.3,0-5.7,1-7.2,3.1c-0.7,1-1.2,2.1-1.2,3.3c0,2,1.5,3.9,4.5,5.6l12.1,7.9
			c3.8,2.2,5.7,5.5,5.7,9.7c0,4.5-1.5,8-4.6,10.5c-3.1,2.4-7.1,3.5-12.2,3.5c-2.9,0-5.5-0.4-8-1c-2.5-0.7-4.2-1.6-5.4-2.8
			C150.2,196.7,150.1,195.7,150.1,194.7"/>
		<path id="tessin-inline__Fill-9___3Yq4i" d="M196.6,199.9c1.1,0,2-0.4,2.8-1.2c0.8-0.8,1.3-1.7,1.3-2.8v-35.3c0-1.1-0.5-2-1.3-2.8
			c-0.7-0.7-1.7-1.2-2.8-1.2h-0.8V156h19.3l-0.1,0.6h-0.7c-1.1,0-2.1,0.4-2.8,1.2c-0.8,0.7-1.2,1.7-1.2,2.8v35.3
			c0,1.1,0.4,2.1,1.2,2.8c0.8,0.7,1.7,1.2,2.8,1.2h0.7l0.1,0.6h-19.3v-0.6H196.6"/>
		<path id="tessin-inline__Fill-10___1NVNp" d="M279.1,156.7c-1.1,0-2,0.4-2.7,1.2c-0.7,0.7-1.2,1.6-1.2,2.6v32.8
			c0,2.8,0.2,5.3,0.5,7.2l0.2,0.9h-0.5l-32.1-30.6v25.2c0,1.1,0.4,2,1.2,2.7c0.7,0.7,1.6,1.1,2.7,1.1h1.2v0.6h-19.3v-0.6h1.2
			c1.1,0,2-0.4,2.8-1.1c0.7-0.7,1.2-1.7,1.2-2.8v-32.9c0-2.8-0.2-5.1-0.5-7l-0.1-0.9h0.5l31.9,30.5v-25.1c0-1.1-0.5-2-1.2-2.7
			c-0.7-0.7-1.6-1.2-2.7-1.2H261V156h19.3v0.6L279.1,156.7"/>
	</g>
</g>
</svg>
