<?xml version="1.0" encoding="UTF-8"?>
<svg width="137px" height="43px" viewBox="0 0 137 43" version="1.1" xmlns="http://www.w3.org/2000/svg" xmlns:xlink="http://www.w3.org/1999/xlink">
    <!-- Generator: Sketch 50.2 (55047) - http://www.bohemiancoding.com/sketch -->
    <title>tessin-logo</title>
    <desc>Created with Sketch.</desc>
    <defs>
        <polygon id="path-1" points="0.6943 0.7805 18.488 0.7805 18.488 16.8735 0.6943 16.8735"></polygon>
    </defs>
    <g id="tessin-logo" stroke="none" stroke-width="1" fill="none" fill-rule="evenodd">
        <path d="M2.3113,21.3886 C2.3113,10.6846 9.1863,2.0076 17.6663,2.0076 C26.1463,2.0076 33.0203,10.6846 33.0203,21.3886 C33.0203,32.0926 26.1463,40.7686 17.6663,40.7686 C9.1863,40.7686 2.3113,32.0926 2.3113,21.3886" id="Fill-1" fill="#00B697"></path>
        <path d="M1.072,21.534 C1.072,10.233 8.497,1.072 17.656,1.072 C26.816,1.072 34.241,10.233 34.241,21.534 C34.241,32.835 26.816,41.997 17.656,41.997 C8.497,41.997 1.072,32.835 1.072,21.534 Z" id="Stroke-3" stroke="#00B697" stroke-width="2.144"></path>
        <path d="M24.146,10.4765 C24.146,10.4765 25.561,11.9465 26.213,13.0595 C26.731,13.9415 27.267,14.4355 27.273,15.4595 C27.277,15.8995 26.972,16.1475 27.087,16.5725 C27.213,17.0315 27.617,17.1005 27.907,17.4785 C28.209,17.8735 28.4,18.0945 28.595,18.5525 C29.011,19.5305 30.143,21.1115 28.692,21.2765 C28.468,21.3015 27.855,21.2525 27.686,21.6325 C27.587,21.8575 27.666,22.0185 27.702,22.2615 C27.737,22.4985 27.944,22.6295 27.862,22.8545 C27.777,23.0905 27.324,23.2085 27.324,23.2085 C27.324,23.2085 27.695,23.4865 27.678,23.7325 C27.657,24.0325 27.117,23.9055 27.066,24.2025 C27.042,24.3435 27.089,24.4255 27.123,24.5635 C27.187,24.8125 27.327,24.9175 27.383,25.1685 C27.485,25.6315 27.451,25.9595 27.22,26.3745 C26.787,27.1545 25.797,26.5965 25.038,27.0665 C24.746,27.2475 24.58,27.3565 24.336,27.6005 C23.843,28.0935 23.466,29.1645 23.466,29.1645 C23.466,29.1645 24.89,34.2575 24.22,33.8705 C24.22,33.8705 21.993,32.5595 19.764,31.2975 C18.568,30.6215 17.872,30.3375 16.783,30.7895 C15.826,31.1875 15.904,32.1945 15.093,32.8395 C14.416,33.3785 14,33.7725 13.143,33.8995 C12.066,34.0585 11.523,33.3685 10.475,33.0705 C9.271,32.7275 8.14,33.2585 7.365,32.2755 C6.488,31.1635 7.667,30.0745 7.687,28.6585 C7.702,27.6265 7.528,27.0455 7.581,26.0145 C7.647,24.7535 7.747,24.0445 8.111,22.8185 C8.359,21.9845 7.827,21.4055 7.802,20.4885 C7.765,19.1505 8.179,18.1425 8.234,17.0835 C8.323,15.4085 8.033,14.7025 8.632,13.3775 C9.262,11.9825 10.323,11.6795 11.337,10.5315 C12.286,9.4575 12.471,8.4755 13.674,7.6975 C14.622,7.0845 15.345,7.1295 16.408,6.7515 C17.436,6.3855 17.947,5.8595 19.035,5.7915 C19.925,5.7365 20.421,5.9715 21.287,6.1825 C21.993,6.3535 22.474,6.3045 23.068,6.7205 C24.052,7.4095 24.371,8.3355 24.319,9.5365 C24.303,9.9085 24.146,10.4765 24.146,10.4765" id="Fill-5" fill="#FEFEFE"></path>
        <path d="M48.8327,15.0856 L48.8327,28.0446 C48.8467,28.4276 48.9867,28.7506 49.2517,29.0156 C49.5307,29.2806 49.8627,29.4136 50.2457,29.4136 L50.5097,29.4136 L50.5317,29.6336 L43.8217,29.6336 L43.8217,29.4136 L44.1087,29.4136 C44.4757,29.4136 44.7927,29.2806 45.0577,29.0156 C45.3377,28.7506 45.4917,28.4346 45.5207,28.0666 L45.5207,15.0856 L42.5407,15.0856 C41.8637,15.1006 41.3267,15.3136 40.9297,15.7266 C40.5317,16.1376 40.3327,16.6756 40.3327,17.3376 L40.3327,17.6026 L40.1117,17.6026 L40.1117,13.7616 C40.3187,13.8496 40.6857,13.9376 41.2167,14.0256 C41.7607,14.1146 42.2607,14.1586 42.7177,14.1586 L51.6137,14.1586 C52.3347,14.1436 52.9237,14.0846 53.3797,13.9816 C53.8357,13.8796 54.1157,13.8056 54.2187,13.7616 L54.2187,17.6026 L53.9987,17.6026 L53.9987,17.3376 C53.9987,16.6756 53.7997,16.1376 53.4027,15.7266 C53.0047,15.3136 52.4677,15.1006 51.7907,15.0856 L48.8327,15.0856 Z" id="Fill-7" fill="#231F20"></path>
        <path d="M59.031,29.4131 C59.414,29.4131 59.737,29.2801 60.003,29.0151 C60.282,28.7361 60.43,28.4051 60.444,28.0221 L60.444,15.7261 C60.4,15.2111 60.157,14.8281 59.715,14.5781 C59.495,14.4601 59.267,14.4011 59.031,14.4011 L58.744,14.4011 L58.744,14.1801 L67.199,14.1801 C67.656,14.1801 68.156,14.1361 68.701,14.0481 C69.245,13.9601 69.628,13.8711 69.849,13.7831 L69.849,17.6461 L69.628,17.6461 L69.628,17.3811 C69.628,16.7191 69.429,16.1891 69.032,15.7921 C68.649,15.3801 68.127,15.1591 67.464,15.1291 L63.756,15.1291 L63.756,21.5541 L66.669,21.5541 C67.214,21.5391 67.663,21.3561 68.016,21.0021 C68.369,20.6341 68.546,20.1851 68.546,19.6551 L68.546,19.4571 L68.767,19.4571 L68.767,24.5561 L68.546,24.5561 L68.546,24.3801 C68.546,23.6441 68.251,23.0991 67.663,22.7461 C67.369,22.5841 67.045,22.4961 66.692,22.4811 L63.756,22.4811 L63.756,28.6841 L66.647,28.6841 C67.722,28.6841 68.619,28.3751 69.341,27.7571 C70.077,27.1391 70.621,26.2631 70.974,25.1301 L71.195,25.1301 L70.179,29.6331 L58.744,29.6331 L58.744,29.4131 L59.031,29.4131 Z" id="Fill-9" fill="#231F20"></path>
        <path d="M76.1618,27.581 C76.1618,26.521 76.3908,25.616 76.8468,24.866 L77.0458,24.866 C77.0308,24.983 77.0228,25.101 77.0228,25.218 C77.0228,26.234 77.3838,27.124 78.1048,27.89 C78.8398,28.64 79.8408,29.016 81.1068,29.016 C82.0938,29.016 82.8588,28.78 83.4028,28.309 C83.9618,27.838 84.2418,27.242 84.2418,26.521 C84.2418,25.653 83.6538,24.895 82.4758,24.247 L78.6338,21.709 C77.8688,21.267 77.3168,20.737 76.9788,20.119 C76.6548,19.486 76.4928,18.846 76.4928,18.199 C76.4928,16.815 76.9268,15.748 77.7958,14.998 C78.6788,14.247 79.8048,13.872 81.1728,13.872 C81.9818,13.872 82.9828,13.945 84.1758,14.092 L85.5658,14.092 L85.2798,17.338 L85.0588,17.338 C85.0588,16.572 84.7708,15.961 84.1978,15.505 C83.6378,15.034 82.8878,14.799 81.9458,14.799 C80.7978,14.799 79.9668,15.152 79.4508,15.858 C79.1868,16.197 79.0538,16.58 79.0538,17.006 C79.0538,17.713 79.5688,18.368 80.5988,18.971 L84.8158,21.709 C86.1398,22.474 86.8028,23.6 86.8028,25.086 C86.8028,26.661 86.2658,27.868 85.1908,28.707 C84.1308,29.531 82.7188,29.942 80.9528,29.942 C79.9518,29.942 79.0238,29.825 78.1708,29.59 C77.3318,29.339 76.7138,29.009 76.3158,28.596 C76.2138,28.316 76.1618,27.978 76.1618,27.581" id="Fill-11" fill="#231F20"></path>
        <path d="M92.2331,27.581 C92.2331,26.521 92.4611,25.616 92.9181,24.866 L93.1161,24.866 C93.1021,24.983 93.0941,25.101 93.0941,25.218 C93.0941,26.234 93.4551,27.124 94.1751,27.89 C94.9111,28.64 95.9121,29.016 97.1781,29.016 C98.1641,29.016 98.9291,28.78 99.4741,28.309 C100.0331,27.838 100.3131,27.242 100.3131,26.521 C100.3131,25.653 99.7241,24.895 98.5471,24.247 L94.7051,21.709 C93.9401,21.267 93.3881,20.737 93.0501,20.119 C92.7251,19.486 92.5641,18.846 92.5641,18.199 C92.5641,16.815 92.9981,15.748 93.8671,14.998 C94.7491,14.247 95.8761,13.872 97.2441,13.872 C98.0531,13.872 99.0541,13.945 100.2461,14.092 L101.6371,14.092 L101.3511,17.338 L101.1291,17.338 C101.1291,16.572 100.8421,15.961 100.2681,15.505 C99.7091,15.034 98.9591,14.799 98.0171,14.799 C96.8681,14.799 96.0371,15.152 95.5221,15.858 C95.2581,16.197 95.1251,16.58 95.1251,17.006 C95.1251,17.713 95.6401,18.368 96.6701,18.971 L100.8861,21.709 C102.2111,22.474 102.8741,23.6 102.8741,25.086 C102.8741,26.661 102.3371,27.868 101.2621,28.707 C100.2021,29.531 98.7891,29.942 97.0241,29.942 C96.0231,29.942 95.0951,29.825 94.2421,29.59 C93.4031,29.339 92.7851,29.009 92.3871,28.596 C92.2841,28.316 92.2331,27.978 92.2331,27.581" id="Fill-13" fill="#231F20"></path>
        <path d="M108.414,29.4131 C108.797,29.4131 109.12,29.2801 109.386,29.0151 C109.665,28.7361 109.813,28.4051 109.827,28.0221 L109.827,15.7701 C109.813,15.3871 109.665,15.0631 109.386,14.7991 C109.12,14.5341 108.797,14.4011 108.414,14.4011 L108.127,14.4011 L108.127,14.1801 L114.838,14.1801 L114.816,14.4011 L114.552,14.4011 C114.169,14.4011 113.837,14.5341 113.558,14.7991 C113.278,15.0631 113.139,15.3871 113.139,15.7701 L113.139,28.0221 C113.139,28.4051 113.278,28.7361 113.558,29.0151 C113.837,29.2801 114.169,29.4131 114.552,29.4131 L114.816,29.4131 L114.838,29.6331 L108.127,29.6331 L108.127,29.4131 L108.414,29.4131 Z" id="Fill-15" fill="#231F20"></path>
        <g id="Group-19" transform="translate(119.000000, 13.069000)">
            <mask id="mask-2" fill="white">
                <use xlink:href="#path-1"></use>
            </mask>
            <g id="Clip-18"></g>
            <path d="M18.0683,1.3325 C17.7003,1.3325 17.3843,1.4645 17.1193,1.7295 C16.8543,1.9805 16.7143,2.2895 16.6993,2.6575 L16.6993,14.0485 C16.6993,15.0345 16.7663,15.8655 16.8983,16.5425 L16.9643,16.8735 L16.7663,16.8735 L5.6173,6.2555 L5.6173,15.0195 C5.6173,15.3875 5.7503,15.7035 6.0153,15.9685 C6.2803,16.2185 6.5963,16.3445 6.9643,16.3445 L7.3833,16.3445 L7.3833,16.5645 L0.6943,16.5645 L0.6943,16.3445 L1.0913,16.3445 C1.4743,16.3445 1.7983,16.2185 2.0633,15.9685 C2.3283,15.7035 2.4603,15.3795 2.4603,14.9975 L2.4603,3.5395 C2.4603,2.5685 2.3953,1.7595 2.2613,1.1115 L2.2183,0.7805 L2.4173,0.7805 L13.5653,11.3995 L13.5653,2.6785 C13.5503,2.2965 13.4103,1.9805 13.1453,1.7295 C12.8813,1.4645 12.5643,1.3325 12.1963,1.3325 L11.7993,1.3325 L11.7993,1.1115 L18.4883,1.1115 L18.4883,1.3325 L18.0683,1.3325 Z" id="Fill-17" fill="#231F20" mask="url(#mask-2)"></path>
        </g>
    </g>
</svg>