<?xml version="1.0" encoding="utf-8"?>
<!-- Generator: Adobe Illustrator 22.1.0, SVG Export Plug-In . SVG Version: 6.00 Build 0)  -->
<svg version="1.1" id="Layer_1" xmlns="http://www.w3.org/2000/svg" xmlns:xlink="http://www.w3.org/1999/xlink" x="0px" y="0px"
	 viewBox="0 0 438.5 133.3" style="enable-background:new 0 0 438.5 133.3;" xml:space="preserve">
<style type="text/css">
	.st0{fill:#00B798;}
	.st1{fill:none;stroke:#00B798;stroke-width:2.1442;stroke-miterlimit:3.8637;}
	.st2{fill:#FFFFFF;}
</style>
<g>
	<path class="st0" d="M5,66.3C5,32,27,4.2,54.2,4.2s49.2,27.8,49.2,62.1s-22,62.1-49.2,62.1C27.1,128.4,5,100.6,5,66.3L5,66.3z"/>
	<path class="st1" d="M1.1,66.7c0-36.2,23.8-65.6,53.2-65.6s53.2,29.4,53.2,65.6s-23.8,65.6-53.2,65.6C24.9,132.3,1.1,103,1.1,66.7
		L1.1,66.7z"/>
	<path class="st2" d="M75,31.3c0,0,4.5,4.7,6.6,8.3c1.7,2.8,3.4,4.4,3.4,7.7c0,1.4-1,2.2-0.6,3.6c0.4,1.5,1.7,1.7,2.6,2.9
		c1,1.3,1.6,2,2.2,3.4c1.3,3.1,5,8.2,0.3,8.7c-0.7,0.1-2.7-0.1-3.2,1.1c-0.3,0.7-0.1,1.2,0.1,2c0.1,0.8,0.8,1.2,0.5,1.9
		c-0.3,0.8-1.7,1.1-1.7,1.1s1.2,0.9,1.1,1.7c-0.1,1-1.8,0.6-2,1.5c-0.1,0.5,0.1,0.7,0.2,1.2c0.2,0.8,0.7,1.1,0.8,1.9
		c0.3,1.5,0.2,2.5-0.5,3.9c-1.4,2.5-4.6,0.7-7,2.2c-0.9,0.6-1.5,0.9-2.3,1.7c-1.6,1.6-2.8,5-2.8,5s4.6,16.3,2.4,15.1
		c0,0-7.1-4.2-14.3-8.2c-3.8-2.2-6.1-3.1-9.6-1.6c-3.1,1.3-2.8,4.5-5.4,6.6c-2.2,1.7-3.5,3-6.3,3.4c-3.5,0.5-5.2-1.7-8.6-2.7
		c-3.9-1.1-7.5,0.6-10-2.5c-2.8-3.6,1-7.1,1-11.6c0-3.3-0.5-5.2-0.3-8.5c0.2-4,0.5-6.3,1.7-10.2c0.8-2.7-0.9-4.5-1-7.5
		c-0.1-4.3,1.2-7.5,1.4-10.9c0.3-5.4-0.6-7.6,1.3-11.9c2-4.5,5.4-5.4,8.7-9.1c3-3.4,3.6-6.6,7.5-9.1c3-2,5.4-1.8,8.8-3
		c3.3-1.2,4.9-2.9,8.4-3.1c2.9-0.2,4.4,0.6,7.2,1.3c2.3,0.6,3.8,0.4,5.7,1.7c3.2,2.2,4.2,5.2,4,9C75.5,29.5,75,31.3,75,31.3L75,31.3
		z"/>
	<path d="M154.2,46.1v41.5c0,1.2,0.5,2.3,1.3,3.1c0.9,0.8,2,1.3,3.2,1.3h0.8l0.1,0.7h-21.5V92h0.9c1.2,0,2.2-0.4,3-1.3
		c0.9-0.8,1.4-1.9,1.5-3V46.1h-9.6c-2.2,0-3.9,0.7-5.2,2.1c-1.3,1.3-1.9,3-1.9,5.2v0.8h-0.6V41.8c0.7,0.3,1.8,0.6,3.5,0.8
		c1.7,0.3,3.3,0.4,4.8,0.4H163c2.3,0,4.2-0.2,5.7-0.6c1.5-0.3,2.4-0.6,2.7-0.7V54h-0.7v-0.8c0-2.1-0.6-3.8-1.9-5.2
		c-1.3-1.3-3-2-5.2-2.1h-9.4V46.1z"/>
	<path d="M186.9,92c1.2,0,2.3-0.4,3.1-1.3c0.9-0.9,1.4-2,1.4-3.2V48.1c-0.1-1.7-0.9-2.9-2.3-3.7c-0.7-0.4-1.4-0.6-2.2-0.6H186v-0.7
		h27.1c1.5,0,3.1-0.1,4.8-0.4c1.7-0.3,3-0.6,3.7-0.8v12.4h-0.7v-0.8c0-2.1-0.6-3.8-1.9-5.1c-1.2-1.3-2.9-2-5-2.1h-11.9v20.6h9.3
		c1.7,0,3.2-0.6,4.3-1.8c1.1-1.2,1.7-2.6,1.7-4.3v-0.6h0.7v16.3h-0.7v-0.6c0-2.4-0.9-4.1-2.8-5.2c-0.9-0.5-2-0.8-3.1-0.8h-9.4v19.9
		h9.3c3.4,0,6.3-1,8.6-3c2.4-2,4.1-4.8,5.2-8.4h0.7l-3.3,14.4h-36.7V92H186.9L186.9,92z"/>
	<path d="M241.8,86.1c0-3.4,0.7-6.3,2.2-8.7h0.6c0,0.4-0.1,0.8-0.1,1.1c0,3.3,1.2,6.1,3.5,8.6c2.4,2.4,5.6,3.6,9.6,3.6
		c3.2,0,5.6-0.8,7.4-2.3s2.7-3.4,2.7-5.7c0-2.8-1.9-5.2-5.7-7.3l-12.3-8.1c-2.5-1.4-4.2-3.1-5.3-5.1c-1-2-1.6-4.1-1.6-6.2
		c0-4.4,1.4-7.9,4.2-10.3c2.8-2.4,6.4-3.6,10.8-3.6c2.6,0,5.8,0.2,9.6,0.7h4.5L271,53.2h-0.7c0-2.5-0.9-4.4-2.8-5.9
		c-1.8-1.5-4.2-2.3-7.2-2.3c-3.7,0-6.3,1.1-8,3.4c-0.8,1.1-1.3,2.3-1.3,3.7c0,2.3,1.7,4.4,5,6.3l13.5,8.8c4.2,2.5,6.4,6.1,6.4,10.8
		c0,5-1.7,8.9-5.2,11.6c-3.4,2.6-7.9,4-13.6,4c-3.2,0-6.2-0.4-8.9-1.1c-2.7-0.8-4.7-1.9-5.9-3.2C242,88.5,241.8,87.4,241.8,86.1
		L241.8,86.1z"/>
	<path d="M293.3,86.1c0-3.4,0.7-6.3,2.2-8.7h0.6c0,0.4-0.1,0.8-0.1,1.1c0,3.3,1.2,6.1,3.5,8.6c2.4,2.4,5.6,3.6,9.6,3.6
		c3.2,0,5.6-0.8,7.4-2.3s2.7-3.4,2.7-5.7c0-2.8-1.9-5.2-5.7-7.3l-12.3-8.1c-2.5-1.4-4.2-3.1-5.3-5.1c-1-2-1.6-4.1-1.6-6.2
		c0-4.4,1.4-7.9,4.2-10.3c2.8-2.4,6.4-3.6,10.8-3.6c2.6,0,5.8,0.2,9.6,0.7h4.5l-0.9,10.4h-0.7c0-2.5-0.9-4.4-2.8-5.9
		c-1.8-1.5-4.2-2.3-7.2-2.3c-3.7,0-6.3,1.1-8,3.4c-0.8,1.1-1.3,2.3-1.3,3.7c0,2.3,1.6,4.4,5,6.3l13.5,8.8c4.2,2.5,6.4,6.1,6.4,10.8
		c0,5-1.7,8.9-5.2,11.6c-3.4,2.6-7.9,4-13.6,4c-3.2,0-6.2-0.4-8.9-1.1c-2.7-0.8-4.7-1.9-5.9-3.2C293.5,88.5,293.3,87.4,293.3,86.1
		L293.3,86.1z"/>
	<path d="M345.2,92c1.2,0,2.3-0.4,3.1-1.3c0.9-0.9,1.4-2,1.4-3.2V48.3c0-1.2-0.5-2.3-1.4-3.1c-0.9-0.8-1.9-1.3-3.1-1.3h-0.9v-0.7
		h21.5l-0.1,0.7h-0.8c-1.2,0-2.3,0.4-3.2,1.3c-0.9,0.8-1.3,1.9-1.3,3.1v39.3c0,1.2,0.4,2.3,1.3,3.2c0.9,0.8,2,1.3,3.2,1.3h0.8
		l0.1,0.7h-21.5V92H345.2L345.2,92z"/>
	<path d="M437,43.9c-1.2,0-2.2,0.4-3,1.3c-0.8,0.8-1.3,1.8-1.3,3v36.5c0,3.2,0.2,5.8,0.6,8l0.2,1.1h-0.6l-35.7-34v28.1
		c0,1.2,0.4,2.2,1.3,3c0.8,0.8,1.9,1.2,3,1.2h1.3v0.7h-21.4V92h1.3c1.2,0,2.3-0.4,3.1-1.2c0.8-0.8,1.3-1.9,1.3-3.1V51
		c0-3.1-0.2-5.7-0.6-7.8l-0.1-1.1h0.6l35.7,34v-28c0-1.2-0.5-2.2-1.3-3s-1.9-1.3-3-1.3h-1.3v-0.7h21.4v0.7H437V43.9z"/>
</g>
</svg>
